<svg width="113" height="169" viewBox="0 0 113 169" fill="none" xmlns="http://www.w3.org/2000/svg">
<path d="M34.3822 14.1824C34.4195 15.3607 34.7814 18.2299 35.8831 20.6528C36.2503 21.461 37.0225 22.0102 37.9062 22.0924C37.9831 22.0993 38.0596 22.1029 38.1355 22.1029C38.9367 22.1029 39.6944 21.7137 40.1602 21.0503C43.677 16.0403 48.0491 11.5481 53.1548 7.69884L57.3243 4.55517C58.4152 3.73281 58.6329 2.18143 57.8102 1.09022C56.9875 -0.000329846 55.4368 -0.218374 54.3453 0.604322L50.1761 3.74798C46.1173 6.80786 42.4841 10.2484 39.3286 14.0162L39.2234 2.45093C39.2105 1.09253 38.1051 0 36.7494 0H36.7266C35.3603 0.0125351 34.2628 1.13046 34.275 2.49646L34.3809 14.1267C34.3812 14.1455 34.3816 14.164 34.3822 14.1824Z" fill="#444444"/>
<path d="M98.5882 133.836H93.6283V128.876C93.6283 126.729 91.8816 124.983 89.7348 124.983H81.6639C79.5168 124.983 77.7701 126.729 77.7701 128.876V133.836H72.8105C70.6634 133.836 68.9167 135.583 68.9167 137.73V145.801C68.9167 147.947 70.6634 149.694 72.8105 149.694H77.7701V154.654C77.7701 156.801 79.5168 158.547 81.6639 158.547H89.7348C91.8816 158.547 93.6283 156.801 93.6283 154.654V149.694H98.5882C100.735 149.694 102.482 147.947 102.482 145.801V137.73C102.481 135.583 100.735 133.836 98.5882 133.836ZM97.5333 144.746H92.5737C90.4266 144.746 88.6799 146.492 88.6799 148.639V153.599H82.7182V148.639C82.7182 146.492 80.9715 144.746 78.8247 144.746H73.8648V138.784H78.8247C80.9715 138.784 82.7182 137.038 82.7182 134.89V129.931H88.6799V134.89C88.6799 137.038 90.4266 138.784 92.5737 138.784H97.5333V144.746Z" fill="#E64E4B"/>
<path d="M88.6631 115.119C91.4522 109.625 93.7748 103.721 95.4485 97.8431C95.8229 96.5292 95.0609 95.1602 93.7467 94.7862C92.4342 94.4114 91.0642 95.1734 90.6898 96.488C88.8749 102.86 86.2567 109.265 83.0929 115.081C80.2871 115.353 77.6062 116.059 75.1193 117.132C75.024 114.694 74.3471 112.781 74.2254 112.455C73.7487 111.179 72.3316 110.533 71.0537 111.004C69.7754 111.476 69.1206 112.896 69.5864 114.177C69.9067 115.056 70.5255 117.629 69.9103 119.743C68.858 119.286 67.7451 118.895 66.5849 118.574C64.0574 117.875 62.3395 116.524 61.3749 114.465C61.3482 114.398 61.3182 114.332 61.2855 114.268C61.0883 113.815 60.926 113.33 60.7977 112.812C60.1884 110.347 60.6133 108.058 60.6156 108.045C60.8841 106.705 60.0159 105.402 58.6759 105.134C57.3344 104.865 56.0324 105.734 55.7642 107.073C55.7071 107.357 55.2836 109.634 55.6975 112.477C54.9332 112.546 54.1284 112.725 53.337 113.078C51.5959 113.855 50.2897 115.321 49.5587 117.318C49.0889 118.601 49.7483 120.022 51.0315 120.492C51.3123 120.595 51.5996 120.643 51.8816 120.643C52.8907 120.643 53.8384 120.021 54.2052 119.019C54.5588 118.052 55.022 117.748 55.3393 117.603C55.9512 117.324 56.7511 117.367 57.366 117.478C58.7416 119.892 61.1318 122.2 65.2668 123.343C65.524 123.415 65.778 123.49 66.0284 123.569C62.0469 127.87 59.4548 133.475 58.9725 139.662C57.1328 140.129 55.2427 140.424 53.3235 140.543C52.7686 140.583 52.3108 140.602 51.8823 140.602C47.2776 140.602 41.9868 138.997 36.2646 134.538C31.5088 130.833 26.8725 125.415 22.857 118.871C22.253 117.887 21.6658 116.882 21.0968 115.859C29.7839 107.305 34.3276 99.3252 34.6083 92.1202C34.9768 82.6658 35.1905 78.9838 36.4641 76.2877C37.176 76.4513 38.0723 76.7123 38.9992 77.122C41.5217 78.2366 43.1364 79.9242 43.7978 82.139C44.0996 83.1497 44.5011 84.0374 44.9781 84.8159C43.5151 88.2673 44.7356 91.7204 45.842 93.3888C46.32 94.1099 47.1133 94.5032 47.9205 94.5032C48.3883 94.5032 48.8603 94.3712 49.278 94.0944C50.4167 93.3394 50.7347 91.8147 49.9796 90.6757C49.9423 90.617 49.4224 89.7771 49.2941 88.6602C51.2463 89.5924 53.3538 89.917 55.1087 89.917C55.8186 89.917 56.4718 89.8639 57.0325 89.7761C58.3777 89.566 59.2935 88.3098 59.0906 86.9636C58.8874 85.6174 57.625 84.6918 56.2811 84.8855C55.6435 84.9788 50.0103 85.6498 48.5387 80.7235C47.0058 75.5917 42.8649 73.1777 39.6233 72.0532C39.8394 71.817 40.066 71.5716 40.3035 71.3136C42.0416 69.4281 44.4219 66.8455 47.4986 62.9168C49.1513 60.8063 50.5044 58.6384 51.5204 56.4741C52.1013 55.2371 51.5689 53.7635 50.3322 53.183C49.0955 52.6027 47.6217 53.1348 47.0411 54.3712C46.1828 56.1996 45.0259 58.0482 43.6025 59.8661C40.6482 63.6382 38.4394 66.0344 36.6647 67.9602C30.6891 74.4428 30.2926 75.7827 29.6632 91.9282C29.4471 97.4753 25.6724 104.113 18.7053 111.248C13.5042 100.46 10.3256 88.4484 10.3256 78.9013C10.3256 77.8929 10.3612 76.8927 10.4315 75.9018C10.9949 75.0435 12.4374 73.0313 14.6564 71.2025C16.7627 74.1066 20.7211 75.3248 23.2581 75.5854C23.3442 75.594 23.4297 75.5986 23.5138 75.5986C24.7666 75.5986 25.8413 74.6503 25.972 73.3773C26.1115 72.0179 25.1229 70.803 23.7638 70.6631C23.7226 70.6592 20.4407 70.2406 18.9283 68.6054C20.3873 68.0096 22.0129 67.6244 23.7942 67.5993H23.7985C23.8083 67.5993 23.8179 67.599 23.8278 67.5986C32.6809 67.4548 35.5408 59.9107 35.6586 59.5894C36.128 58.3059 35.4719 56.8752 34.1884 56.4061C32.9052 55.9377 31.4881 56.5866 31.019 57.8701C30.9527 58.0423 29.4937 61.6923 25.2842 62.4969C25.1341 61.594 25.116 60.2871 25.2776 59.1701C25.4762 57.8206 24.5443 56.5648 23.1945 56.3636C21.8469 56.161 20.5842 57.0946 20.3833 58.446C20.2992 59.0105 20.0544 60.9762 20.3599 63.0098C17.0331 63.6804 14.2619 65.2087 12.0633 66.9145C16.6733 51.4225 29.9799 39.6768 46.2507 37.4482C47.2093 38.8907 48.8016 41.8635 48.9322 45.842C48.9764 47.1803 50.0746 48.2349 51.4033 48.2349C51.4307 48.2349 51.4584 48.2346 51.4861 48.2336C52.8518 48.1887 53.9225 47.0451 53.8777 45.6797C53.7612 42.132 52.7676 39.2044 51.7187 37.0658C51.7728 37.0655 51.8269 37.0652 51.8813 37.0652C61.939 37.0652 71.1737 40.6812 78.3702 46.6895C72.1119 49.9123 68.0664 55.5399 68.4701 62.7829C68.5961 65.0464 68.1465 66.8957 67.4733 68.3662C66.7548 67.5716 66.128 66.5295 66.2471 65.3799C66.388 64.0209 65.4003 62.8046 64.041 62.6644C62.6809 62.5226 61.466 63.5115 61.3255 64.8706C60.9821 68.1871 62.7782 70.7268 64.4177 72.3154C63.9318 72.7093 63.5874 72.9132 63.5379 72.9419C62.3441 73.6065 61.9149 75.1131 62.5793 76.3069C63.0319 77.1197 63.8747 77.5782 64.7436 77.5782C65.1506 77.5782 65.5633 77.4776 65.9446 77.2658C66.2267 77.1088 71.9539 73.8322 73.2018 66.4639C74.0786 67.6804 74.8505 69.3288 75.0949 71.4987C75.2374 72.7624 76.3082 73.6959 77.5501 73.6959C77.6428 73.6959 77.7362 73.6907 77.8305 73.6801C79.1883 73.527 80.165 72.3022 80.0119 70.9445C79.3205 64.8079 75.684 61.4578 73.5274 59.9839C74.4434 54.1089 79.7203 51.37 82.2567 50.3794C89.1896 57.8576 93.4377 67.8892 93.4377 78.901C93.4377 81.4373 93.2104 84.2039 92.7614 87.1243C92.5539 88.4748 93.4805 89.7379 94.831 89.9453C96.1815 90.1525 97.4446 89.2262 97.6521 87.8757C98.139 84.7077 98.3857 81.6884 98.3857 78.9013C98.3857 65.1223 92.4065 52.4058 82.4051 43.6336C83.7553 42.2956 85.052 40.9336 86.2788 39.5646C94.6654 30.2082 99.1124 22.6944 100.272 15.9278L102.535 3.00776C102.771 1.66189 101.87 0.379688 100.525 0.143831C99.1807 -0.0897166 97.8962 0.80819 97.6606 2.15406L95.3961 15.083C94.3996 20.9002 90.3313 27.6299 82.5938 36.262C81.3001 37.7055 79.9235 39.1417 78.4853 40.549C76.8445 39.3934 75.1262 38.3418 73.3403 37.4033C79.5937 30.3316 88.9719 16.8527 90.4817 8.03927L90.4886 7.99771L91.2641 2.95729C91.472 1.60648 90.5453 0.343403 89.1952 0.135585C87.8464 -0.0719036 86.5813 0.854371 86.3735 2.20453L85.6016 7.22317C84.225 15.1856 74.4157 29.0385 68.6149 35.2496C63.4201 33.2272 57.7771 32.1178 51.8813 32.1178C49.7546 32.1178 47.5808 32.2626 45.3812 32.5734C48.6479 26.1699 53.3608 20.6235 59.4317 16.0459L74.6664 4.66965C75.7612 3.8519 75.9859 2.30151 75.1685 1.207C74.351 0.112164 72.8007 -0.112148 71.7058 0.70494L56.4619 12.0884C48.6865 17.9509 42.9319 25.2657 39.3419 33.8457C37.0074 34.5041 34.7465 35.3416 32.575 36.3424C33.2044 34.3639 33.9502 32.4064 34.8079 30.4853C35.2416 29.5131 35.0055 28.3721 34.2204 27.6527C30.4137 24.1643 28.9682 18.2715 28.8877 14.3127L28.7818 2.6647C28.7693 1.30596 27.6642 0.213104 26.3081 0.213104H26.2853C24.919 0.225639 23.8215 1.34357 23.8338 2.70956L23.9403 14.3853C24.0366 19.1213 25.6019 25.4937 29.6213 30.0225C28.3137 33.1813 27.2812 36.4219 26.5413 39.6893C13.8097 48.0446 5.37785 62.5008 5.37785 78.9013C5.37785 82.8386 5.84957 87.0903 6.73725 91.4766C3.62393 96.6984 -1.69654 108.604 3.23931 123.125C8.51756 138.653 2.27905 158.667 2.21671 158.864C2.19592 158.928 2.17778 158.994 2.16228 159.061L0.555812 165.966C0.246393 167.297 1.07404 168.627 2.40473 168.936C2.59309 168.98 2.78177 169.001 2.96749 169.001C4.09169 169.001 5.10901 168.229 5.37488 167.087L6.96123 160.269C7.47945 158.583 13.5477 138.077 7.92379 121.532C4.79596 112.33 6.29555 104.426 8.57561 98.8258C9.48836 101.902 10.5825 104.995 11.84 108.047C11.3874 111.98 11.8192 115.918 13.1265 119.764C19.5715 138.725 12.4602 161.128 12.1547 162.072C12.1408 162.114 12.1283 162.157 12.1171 162.199L11.1367 165.892C10.7864 167.212 11.5725 168.567 12.893 168.918C13.106 168.974 13.3195 169.001 13.5296 169.001C14.6241 169.001 15.6253 168.269 15.9192 167.162L16.8831 163.531C17.395 161.926 23.8047 141.137 18.918 121.912C20.4608 124.393 22.062 126.692 23.713 128.803C26.386 143.289 21.4112 159.218 21.3617 159.374C21.3452 159.426 21.33 159.478 21.3172 159.53L19.7107 165.924C19.3775 167.249 20.1821 168.594 21.5072 168.926C21.7094 168.977 21.9123 169.002 22.1118 169.002C23.2189 169.002 24.2273 168.253 24.5093 167.13L26.099 160.803C26.4506 159.667 29.9647 147.922 29.3835 135.133C31.1941 136.878 33.0464 138.412 34.9309 139.73C34.6631 152.055 31.4412 162.146 31.3023 162.575L30.2583 165.756C29.8321 167.054 30.5394 168.452 31.8374 168.878C32.0934 168.962 32.3533 169.002 32.6093 169.002C33.6494 169.002 34.6175 168.341 34.9596 167.299L36.0069 164.108C36.1471 163.675 39.1163 154.377 39.7701 142.603C43.7375 144.548 47.8038 145.552 51.8813 145.552C52.4318 145.552 53.0032 145.529 53.6537 145.482C55.4693 145.369 57.2766 145.117 59.0523 144.729C60.5308 158.123 71.9169 168.576 85.6989 168.576C90.2373 168.576 94.7268 167.416 98.6819 165.222C99.8767 164.56 100.308 163.054 99.6455 161.859C98.9824 160.664 97.4769 160.232 96.2821 160.895C93.0593 162.683 89.3997 163.628 85.6989 163.628C73.6448 163.628 63.8381 153.821 63.8381 141.767C63.8381 129.713 73.6448 119.906 85.6989 119.906C97.753 119.906 107.56 129.713 107.56 141.767C107.56 146.625 105.995 151.228 103.036 155.077C102.203 156.16 102.405 157.713 103.489 158.546C104.571 159.379 106.125 159.175 106.958 158.093C110.589 153.371 112.508 147.726 112.508 141.767C112.508 127.984 102.056 116.598 88.6631 115.119Z" fill="#444444"/>
</svg>
