<svg width="157" height="169" viewBox="0 0 157 169" fill="none" xmlns="http://www.w3.org/2000/svg">
<path d="M148.963 10.5306C147.955 9.60603 146.389 9.67337 145.465 10.6811C144.541 11.6886 144.608 13.2545 145.615 14.1791C151.231 19.3316 153.253 26.8263 151.025 34.228C148.949 41.122 143.671 46.0549 136.91 47.6271C137.002 46.5048 136.925 45.3795 136.68 44.2886C142.92 42.6391 146.522 37.7323 147.864 33.276C149.413 28.1305 148.79 20.8289 142.395 15.7685C141.339 14.9331 140.223 14.195 139.076 13.5747C136.285 12.0649 133.056 11.4417 129.732 11.7724C123.103 12.4369 116.464 14.127 109.963 16.8027C109.427 15.8253 108.837 14.8806 108.192 13.9642C115.154 11.0423 122.275 9.20233 129.404 8.48834C132.36 8.19158 135.23 8.52267 137.937 9.47366C139.225 9.92655 140.64 9.24821 141.093 7.95821C141.547 6.6682 140.868 5.25541 139.578 4.80186C136.182 3.60923 132.592 3.19101 128.91 3.56104C120.805 4.37307 112.722 6.54046 104.859 10.0081C102.288 7.44557 99.2545 5.36071 95.8747 3.85449C84.3425 -1.28538 72.6473 -1.28472 61.1152 3.85449C57.7357 5.36038 54.7022 7.44524 52.1307 10.0081C44.2673 6.54046 36.1846 4.3734 28.0798 3.56104C23.1116 3.06326 18.2381 4.01525 13.9855 6.31699C12.4206 7.16367 10.9028 8.1665 9.47383 9.29673C1.41031 15.6771 -1.75099 25.7773 1.22348 35.6556C4.12995 45.3089 12.0525 51.8932 21.9801 52.9621C23.9765 55.8686 27.3233 57.7788 31.1081 57.7788C37.2102 57.7788 42.1745 52.8145 42.1745 46.7128C42.1745 40.611 37.2102 35.6467 31.1081 35.6467C27.66 35.6467 24.5749 37.2322 22.5439 39.7125C17.6509 38.8298 14.8636 35.1612 13.8667 31.8493C12.7863 28.2612 13.2174 23.1732 17.6671 19.6524C18.4992 18.9939 19.375 18.4146 20.2695 17.9303C22.187 16.8932 24.4333 16.4673 26.7634 16.6997C32.8715 17.3114 39.0016 18.8675 45.0182 21.3306C43.8127 24.82 43.2846 28.5085 43.4741 32.2415C43.5655 34.0455 43.7721 35.8742 44.0884 37.6765C46.6387 52.2161 56.0968 61.0751 56.3474 61.427C58.3002 63.4924 59.3212 66.1942 59.2221 69.0346C59.1234 71.8748 57.9173 74.499 55.8261 76.4234C49.9472 81.8347 49.1315 90.7333 53.9284 97.1226L57.9282 102.45C60.6828 106.119 60.7567 111.103 58.113 114.853L54.8408 119.492C52.6401 122.613 51.6716 126.421 52.1136 130.214L55.9347 162.986C56.3345 166.415 59.2386 169 62.6904 169H94.2998C97.7516 169 100.656 166.415 101.055 162.986L101.24 161.398C105.3 163.87 110.064 165.295 115.155 165.295C119.696 165.295 124.189 164.135 128.147 161.94C129.342 161.276 129.774 159.77 129.111 158.574C128.448 157.378 126.94 156.946 125.745 157.61C122.52 159.399 118.858 160.344 115.155 160.344C103.092 160.344 93.2791 150.531 93.2791 138.468C93.2791 126.406 103.092 116.593 115.155 116.593C127.217 116.593 137.03 126.406 137.03 138.468C137.03 143.33 135.465 147.935 132.503 151.787C131.67 152.871 131.873 154.425 132.957 155.259C134.04 156.092 135.595 155.889 136.428 154.805C140.062 150.081 141.982 144.431 141.982 138.469C141.982 123.676 129.947 111.642 115.155 111.642C109.515 111.642 104.276 113.391 99.9513 116.376L98.8772 114.853C96.2331 111.104 96.3074 106.12 99.062 102.451L103.062 97.1232C107.858 90.734 107.043 81.8353 101.164 76.4241C99.0729 74.4997 97.8668 71.8758 97.7681 69.0353C97.6694 66.1949 98.6904 63.493 100.643 61.4283C100.911 61.0513 110.348 52.2356 112.902 37.6775C113.218 35.8732 113.425 34.0445 113.516 32.2422C113.706 28.5091 113.177 24.8207 111.972 21.3313C117.988 18.8681 124.118 17.3124 130.225 16.7004C132.558 16.4687 134.804 16.8935 136.721 17.9306C137.616 18.4152 138.491 18.9945 139.323 19.6531C143.773 23.1738 144.204 28.2619 143.124 31.85C142.127 35.1622 139.338 38.8318 134.447 39.7132C132.416 37.2328 129.331 35.6474 125.882 35.6474C119.78 35.6474 114.816 40.6117 114.816 46.7134C114.816 52.8152 119.78 57.7795 125.882 57.7795C129.667 57.7795 133.014 55.8695 135.01 52.9631C144.939 51.8936 152.861 45.3092 155.767 35.6566C158.555 26.3913 156.012 16.9988 148.963 10.5306ZM31.1078 40.5975C34.4797 40.5975 37.2228 43.3405 37.2228 46.7121C37.2228 50.0837 34.4797 52.8268 31.1078 52.8268C28.7443 52.8268 26.6898 51.479 25.6725 49.5116C25.6616 49.4892 25.6504 49.4674 25.6388 49.4453C23.6167 45.4162 26.5515 40.5975 31.1078 40.5975ZM27.2553 11.7724C23.9355 11.4417 20.7039 12.0646 17.9127 13.5751C16.7666 14.1953 15.6502 14.9331 14.5942 15.7689C8.19868 20.8292 7.57579 28.1305 9.12525 33.2763C10.4667 37.7323 14.0691 42.6384 20.3095 44.2886C20.0649 45.3789 19.987 46.5042 20.0794 47.6278C13.3187 46.0559 8.04056 41.123 5.96461 34.2283C3.5886 26.3375 6.11051 18.2723 12.546 13.1803C13.7508 12.2266 15.028 11.3829 16.3417 10.6719C19.7196 8.84385 23.6068 8.08793 27.5854 8.48834C34.7137 9.20233 41.8351 11.0423 48.7971 13.9642C48.4849 14.4079 48.1838 14.8605 47.8947 15.3226C47.59 15.8095 47.3005 16.303 47.0265 16.8027C40.5257 14.127 33.8859 12.4369 27.2553 11.7724ZM108.571 31.9906C108.49 33.5912 108.306 35.216 108.025 36.8209C105.747 49.8038 97.2657 57.7154 97.0445 58.0251C94.1747 61.0603 92.6741 65.0313 92.819 69.206C92.9642 73.3807 94.7372 77.2375 97.8103 80.066C101.81 83.7472 102.365 89.8018 99.1013 94.1491L95.1016 99.4768C91.0533 104.869 90.9441 112.195 94.8306 117.706L96.1394 119.561C91.3134 124.415 88.3271 131.099 88.3271 138.468C88.3271 146.1 91.531 152.998 96.6642 157.888L96.1368 162.413C96.0282 163.345 95.2379 164.048 94.2995 164.048H62.6901C61.7513 164.048 60.9614 163.345 60.8528 162.413L57.0316 129.64C56.7306 127.059 57.3895 124.468 58.8871 122.345L62.1593 117.705C66.0452 112.195 65.9362 104.869 61.8876 99.4765L57.8879 94.1488C54.6243 89.8014 55.1792 83.7469 59.1789 80.0657C62.2527 77.2371 64.025 73.3803 64.1702 69.206C64.4194 62.0307 59.7107 57.8359 59.5945 57.6544C53.9918 51.7289 50.3166 44.5246 48.9648 36.8202C48.6836 35.2173 48.4997 33.5922 48.4185 31.99C47.9125 22.0132 53.8245 12.5241 63.1304 8.3771C73.4689 3.76933 83.5206 3.76966 93.8588 8.3771C103.165 12.5244 109.077 22.0136 108.571 31.9906ZM125.882 52.8271C122.51 52.8271 119.767 50.084 119.767 46.7124C119.767 43.3409 122.51 40.5978 125.882 40.5978C130.307 40.5978 133.42 45.229 131.32 49.507C130.303 51.477 128.247 52.8271 125.882 52.8271Z" fill="#444444"/>
<path d="M83.1172 145.392C79.9635 147.265 77.0263 147.264 73.8729 145.392C72.6971 144.694 71.178 145.081 70.4802 146.257C69.7821 147.432 70.1693 148.951 71.3451 149.649C73.6838 151.038 76.0895 151.733 78.4952 151.733C80.9009 151.733 83.3066 151.038 85.6453 149.649C86.8211 148.951 87.208 147.432 86.5102 146.257C85.8114 145.081 84.2923 144.694 83.1172 145.392Z" fill="#444444"/>
<path d="M88.2627 16.8443C81.7826 13.9392 75.2115 13.9388 68.7314 16.8423C62.391 19.6828 58.3668 26.1935 58.7181 33.0433C58.7696 34.0454 58.8848 35.0608 59.06 36.061C59.8575 40.6067 61.9256 44.2143 63.5203 46.4401C67.0734 51.4001 68.9711 57.1166 69.0962 63.0758L69.6273 88.3626C69.656 89.7298 70.7839 90.8178 72.1545 90.7858C73.5214 90.7571 74.6064 89.6255 74.5777 88.2589L74.0466 62.9721C73.9013 56.0673 71.7178 49.3806 67.5454 43.5571C66.2505 41.7491 64.5732 38.8328 63.9368 35.2054C63.7962 34.4033 63.7038 33.5906 63.6628 32.7898C63.4156 27.9655 66.266 23.3729 70.7559 21.3613C75.9651 19.0272 81.029 19.0279 86.2376 21.3626C90.7259 23.3745 93.5752 27.9671 93.3273 32.7904C93.2861 33.5922 93.194 34.4049 93.0533 35.2054C92.4169 38.8348 90.7417 41.7488 89.4487 43.5541C85.2394 49.4294 83.0875 56.1343 82.9439 62.9718L81.5347 130.054C81.5004 131.696 80.1368 133.031 78.4949 133.031C76.8534 133.031 75.4898 131.696 75.4554 130.054L74.7853 98.1577C74.7566 96.7905 73.6303 95.7121 72.2581 95.7345C70.8912 95.7632 69.8062 96.8948 69.8349 98.2614L70.505 130.158C70.5958 134.472 74.1799 137.982 78.4949 137.982C82.8102 137.982 86.3944 134.472 86.4848 130.158L87.894 63.0755C88.0158 57.2784 89.8217 51.5348 93.4739 46.4375C95.0666 44.2136 97.1326 40.6084 97.9301 36.0607C98.1054 35.0621 98.2206 34.0468 98.2721 33.0439C98.624 26.1958 94.6015 19.6857 88.2627 16.8443Z" fill="#444444"/>
<path d="M128.052 130.534H123.089V125.57C123.089 123.422 121.341 121.674 119.193 121.674H111.116C108.968 121.674 107.22 123.422 107.22 125.57V130.534H102.257C100.109 130.534 98.3608 132.281 98.3608 134.43V142.506C98.3608 144.654 100.109 146.402 102.257 146.402H107.22V151.365C107.22 153.514 108.968 155.262 111.116 155.262H119.193C121.341 155.262 123.089 153.514 123.089 151.365V146.402H128.052C130.2 146.402 131.948 144.654 131.948 142.506V134.43C131.948 132.281 130.2 130.534 128.052 130.534ZM126.997 141.451H122.034C119.885 141.451 118.137 143.199 118.137 145.347V150.31H112.172V145.347C112.172 143.199 110.424 141.451 108.276 141.451H103.313V135.485H108.276C110.424 135.485 112.172 133.737 112.172 131.589V126.626H118.137V131.589C118.137 133.737 119.885 135.485 122.034 135.485H126.997V141.451Z" fill="#E64E4C"/>
</svg>
