<svg width="169" height="169" viewBox="0 0 169 169" fill="none" xmlns="http://www.w3.org/2000/svg">
<path d="M50.0263 49.4282C52.3002 47.9135 55.0494 47.6471 57.5702 48.6991C59.2629 49.4054 60.8879 50.3485 62.4006 51.5027C66.6659 54.7576 66.3698 59.625 64.5214 71.6933C62.934 82.0545 60.9588 94.949 65.7456 108.739C65.8856 109.143 65.7453 109.573 65.4037 109.787C60.9426 112.574 57.5336 116.275 55.5442 120.492C54.9606 121.728 55.4901 123.204 56.7269 123.787C57.0682 123.948 57.4277 124.024 57.7815 124.024C58.7097 124.024 59.5996 123.499 60.0221 122.604C61.6051 119.249 64.3735 116.269 68.0271 113.986C70.34 112.54 71.3253 109.715 70.4228 107.116C66.0384 94.4852 67.832 82.775 69.4151 72.4432C71.152 61.1037 72.4069 52.9109 65.404 47.5672C63.5546 46.1558 61.5602 44.9992 59.4764 44.1298C55.4614 42.4546 50.902 42.8953 47.2807 45.3082C43.6584 47.7217 41.4958 51.7615 41.4958 56.1136V58.273C41.4958 64.2487 42.2952 70.201 43.872 75.9648C44.9586 79.9377 44.1291 84.0848 41.5961 87.3426C39.1631 90.4711 35.5395 92.2512 31.6258 92.2512C31.5479 92.2512 31.4696 92.2506 31.3917 92.2489L31.1151 92.2423C27.644 92.1413 24.2881 90.5566 21.9076 87.8939C11.0114 75.7071 5.30699 62.4947 4.95183 48.6231C5.13205 41.5806 6.70454 34.642 9.62574 27.9995C10.176 26.7479 9.60791 25.2869 8.35625 24.7367C7.10493 24.1858 5.64433 24.7549 5.09376 26.0062C1.9029 33.262 0.189461 40.8511 0.000986816 48.5627C-3.41801e-06 48.603 -3.41801e-06 48.6436 0.000986816 48.6839C0.370344 63.7856 6.49923 78.0882 18.2167 91.194C21.499 94.8651 26.1478 97.0512 30.9722 97.1915L31.2997 97.1991C36.8816 97.2958 42.0576 94.8146 45.5052 90.3813C49.005 85.8807 50.1504 80.1499 48.6482 74.6584C47.188 69.32 46.4476 63.8071 46.4476 58.2727V56.1133C46.4469 53.3809 47.7517 50.9443 50.0263 49.4282Z" fill="#444444"/>
<path d="M69.6336 145.335C63.34 141.984 59.3289 136.766 58.6288 131.017C58.4638 129.659 57.2287 128.695 55.872 128.858C54.5148 129.024 53.5486 130.258 53.714 131.615C54.6121 138.992 59.5666 145.585 67.3073 149.705C68.8837 150.545 69.863 152.21 69.863 154.051V166.481C69.863 167.848 70.9714 168.956 72.3386 168.956C73.7058 168.956 74.8142 167.848 74.8142 166.481V154.051C74.8139 150.375 72.8288 147.035 69.6336 145.335Z" fill="#444444"/>
<path d="M120.352 74.6587C118.85 80.1502 119.995 85.8811 123.495 90.382C126.875 94.7288 131.918 97.2027 137.376 97.2024C137.485 97.2024 137.594 97.2014 137.704 97.1994L138.028 97.1918C142.851 97.0516 147.5 94.8654 150.783 91.1943C162.501 78.0886 168.629 63.7859 168.999 48.6842C169 48.6439 169 48.6033 168.999 48.5631C168.748 38.2983 165.81 28.3227 160.265 18.9131C159.571 17.7354 158.054 17.3436 156.876 18.0371C155.698 18.7313 155.305 20.2486 156 21.427C161.1 30.083 163.808 39.2328 164.048 48.6241C163.693 62.4953 157.989 75.708 147.092 87.8949C144.711 90.5573 141.356 92.1423 137.885 92.2433L137.611 92.2499C133.599 92.3371 129.885 90.5345 127.404 87.3436C124.87 84.0857 124.041 79.9387 125.127 75.9658C126.704 70.2017 127.504 64.2494 127.504 58.274V56.1146C127.504 51.7622 125.341 47.7227 121.719 45.3092C118.097 42.8956 113.538 42.4556 109.523 44.1308C107.439 45.0002 105.445 46.1568 103.595 47.5682C96.592 52.9118 97.8473 61.1051 99.5845 72.4442C101.167 82.776 102.961 94.4862 98.5765 107.117C97.674 109.717 98.6593 112.542 100.972 113.987C103.299 115.441 105.309 117.219 106.853 119.183C101.379 124.098 97.9308 131.226 97.9308 139.144C97.9308 141.404 98.2121 143.6 98.7408 145.699C95.9137 147.485 94.1854 150.623 94.1854 154.052V166.482C94.1854 167.849 95.2935 168.957 96.661 168.957C98.0285 168.957 99.1366 167.849 99.1366 166.482V154.052C99.1366 152.733 99.6393 151.504 100.504 150.604C104.81 159.679 114.062 165.97 124.757 165.97C129.298 165.97 133.79 164.809 137.748 162.614C138.943 161.951 139.375 160.445 138.712 159.249C138.049 158.053 136.542 157.62 135.347 158.285C132.121 160.073 128.46 161.018 124.757 161.018C112.695 161.018 102.882 151.205 102.882 139.144C102.882 127.082 112.695 117.269 124.757 117.269C136.818 117.269 146.631 127.082 146.631 139.144C146.631 144.006 145.066 148.611 142.104 152.462C141.271 153.546 141.474 155.1 142.557 155.934C143.642 156.767 145.196 156.564 146.029 155.48C149.662 150.756 151.582 145.107 151.582 139.144C151.582 124.352 139.548 112.318 124.757 112.318C119.659 112.318 114.89 113.748 110.827 116.226C108.915 113.757 106.489 111.596 103.595 109.788C103.254 109.575 103.113 109.144 103.253 108.741C108.041 94.9506 106.066 82.0558 104.478 71.6949C102.629 59.6266 102.333 54.7593 106.599 51.5044C108.111 50.3501 109.737 49.4068 111.429 48.7007C113.95 47.6491 116.7 47.9151 118.973 49.4299C121.248 50.9459 122.552 53.3825 122.552 56.1153V58.2746C122.553 63.8071 121.812 69.32 120.352 74.6587Z" fill="#444444"/>
<path d="M10.7044 20.3638C11.86 21.095 13.3893 20.7507 14.1201 19.5954C16.3217 16.1157 18.9419 12.6697 21.9073 9.35275C24.2881 6.69034 27.644 5.10531 31.1145 5.0043L31.3888 4.9977C31.467 4.99605 31.5449 4.99539 31.6228 4.99539C35.5392 4.99539 39.1631 6.77583 41.5958 9.90431C44.1288 13.1619 44.9586 17.309 43.8713 21.2834L43.8357 21.4141C42.8778 24.945 43.472 28.7392 45.4663 31.8245C47.4484 34.8902 50.6393 36.9763 54.2206 37.5474C59.4345 38.3792 64.2078 40.426 68.4077 43.631C77.7459 50.7574 76.0764 61.655 74.3088 73.1932C73.0136 81.6494 71.5451 91.2336 73.8705 101.213C75.0066 106.089 79.3442 109.491 84.4191 109.491H84.5756C89.6542 109.49 93.9924 106.089 95.1285 101.213C97.4536 91.2339 95.9854 81.6494 94.6898 73.1932C92.9226 61.6553 91.2531 50.7574 100.591 43.631C104.792 40.426 109.565 38.3792 114.778 37.5474C118.36 36.9767 121.551 34.8902 123.532 31.8241C125.527 28.7389 126.121 24.9447 125.162 21.4108L125.127 21.2814C124.041 17.3086 124.87 13.1615 127.404 9.90398C129.885 6.71312 133.611 4.91782 137.608 4.99737L137.885 5.00397C141.355 5.10498 144.712 6.68968 147.092 9.35242C148.314 10.7189 149.491 12.1228 150.589 13.5246C151.433 14.601 152.989 14.7885 154.065 13.9458C155.141 13.1021 155.329 11.5461 154.486 10.4701C153.322 8.98472 152.076 7.49838 150.783 6.0523C147.5 2.38117 142.852 0.195067 138.027 0.0547834L137.7 0.0471916C132.12 -0.0640447 126.942 2.43135 123.495 6.86496C119.995 11.3656 118.85 17.0964 120.351 22.5862L120.385 22.7107C120.976 24.8876 120.608 27.2295 119.375 29.1366C118.137 31.0524 116.227 32.3031 113.999 32.6582C107.968 33.6201 102.446 35.9877 97.5879 39.6952C85.9147 48.6033 87.9767 62.0652 89.7964 73.9428C91.0837 82.3482 92.4156 91.0398 90.3067 100.09C89.6961 102.711 87.3407 104.539 84.5716 104.539H84.4238C81.6593 104.539 79.3036 102.711 78.6929 100.09C76.5844 91.0398 77.9159 82.3482 79.2032 73.9428C81.0226 62.0656 83.085 48.6033 71.4117 39.6952C66.554 35.9877 61.0324 33.6201 55.0006 32.6582C52.7722 32.3031 50.8631 31.0524 49.6246 29.1366C48.3921 27.2298 48.0237 24.8876 48.6136 22.714L48.6479 22.5879C50.1501 17.0964 49.0044 11.3659 45.5049 6.86496C42.0569 2.43135 36.8697 -0.0495213 31.296 0.0471916L30.9712 0.0547834C26.1478 0.195067 21.499 2.38117 18.2164 6.0523C15.0694 9.57193 12.2835 13.2381 9.93602 16.9482C9.2049 18.1035 9.54917 19.6327 10.7044 20.3638Z" fill="#444444"/>
<path d="M43.8129 32.7995C43.5584 31.4561 42.2734 30.5708 40.93 30.826C40.4135 30.9135 38.8591 30.9894 37.8851 30.2823C37.3147 29.8681 36.9671 29.1835 36.8219 28.189C36.3789 25.15 34.846 23.5613 33.6383 22.7642C30.727 20.8431 27.1823 21.7049 26.7878 21.8096C25.4665 22.1601 24.6694 23.5181 25.0199 24.8397C25.3705 26.161 26.7162 26.9522 28.0375 26.6003C28.499 26.4858 30.0203 26.2973 30.9237 26.905C31.1178 27.0357 31.708 27.4328 31.9225 28.9033C32.3539 31.8624 33.8482 33.4848 35.0259 34.3248C36.7694 35.5682 38.7667 35.8326 40.1514 35.8326C41.0399 35.8326 41.6763 35.7237 41.8308 35.6943C43.1742 35.4398 44.0671 34.1433 43.8129 32.7995Z" fill="#444444"/>
<path d="M26.7878 56.2671C26.9806 56.3182 27.9243 56.55 29.1792 56.55C30.4936 56.55 32.149 56.2955 33.6383 55.3125C34.846 54.5154 36.3789 52.9267 36.8219 49.8877C36.9668 48.8931 37.3147 48.2086 37.8851 47.7943C38.8591 47.0866 40.4131 47.1625 40.9099 47.2474C42.2523 47.5012 43.5485 46.6189 43.8027 45.2755C44.0572 43.9321 43.1742 42.6368 41.8308 42.3823C41.4364 42.3074 37.8884 41.7106 35.0259 43.7515C33.8482 44.5916 32.3539 46.2136 31.9225 49.173C31.7083 50.6435 31.1178 51.0406 30.9237 51.1713C30.0226 51.7774 28.5056 51.5909 28.0405 51.4767C26.7231 51.1354 25.3784 51.9229 25.0295 53.2393C24.6793 54.5612 25.4665 55.9169 26.7878 56.2671Z" fill="#444444"/>
<path d="M32.7909 42.3216C34.0815 42.7745 35.4939 42.0955 35.9465 40.8052C36.3993 39.5153 35.7204 38.1026 34.4304 37.6494C28.6319 35.6154 22.3852 38.3518 22.1218 38.4696C20.8764 39.0261 20.3193 40.4837 20.8718 41.7308C21.2808 42.6547 22.1878 43.2033 23.1385 43.2033C23.4715 43.2033 23.8102 43.1356 24.1343 42.9933C24.1812 42.9732 28.8755 40.9462 32.7909 42.3216Z" fill="#444444"/>
<path d="M127.169 35.6943C127.324 35.7237 127.96 35.8326 128.849 35.8326C130.233 35.8326 132.231 35.5679 133.974 34.3248C135.151 33.4848 136.646 31.8624 137.077 28.9033C137.291 27.4325 137.882 27.0357 138.076 26.905C138.977 26.299 140.493 26.4855 140.958 26.5997C142.272 26.9387 143.62 26.1531 143.969 24.837C144.32 23.5154 143.533 22.1601 142.211 21.8096C141.816 21.7049 138.271 20.8428 135.361 22.7642C134.153 23.5613 132.62 25.15 132.177 28.189C132.032 29.1835 131.685 29.8681 131.114 30.2823C130.14 30.9894 128.586 30.9141 128.089 30.8296C126.746 30.5755 125.45 31.4581 125.196 32.8018C124.943 34.1449 125.825 35.4398 127.169 35.6943Z" fill="#444444"/>
<path d="M125.187 45.2775C125.442 46.6206 126.725 47.5038 128.07 47.251C128.587 47.1629 130.141 47.0873 131.115 47.7943C131.685 48.2086 132.033 48.8931 132.178 49.8877C132.621 52.9267 134.153 54.5154 135.362 55.3125C136.851 56.2958 138.506 56.55 139.821 56.55C141.075 56.55 142.019 56.3183 142.212 56.2671C143.534 55.9165 144.33 54.5586 143.98 53.237C143.629 51.9153 142.281 51.1258 140.962 51.4763C140.5 51.5905 138.979 51.7794 138.076 51.1717C137.882 51.041 137.292 50.6442 137.078 49.1734C136.646 46.2139 135.152 44.5919 133.974 43.7519C131.112 41.711 127.565 42.3078 127.169 42.3827C125.825 42.6372 124.933 43.9344 125.187 45.2775Z" fill="#444444"/>
<path d="M147.117 41.1258C147.7 39.8889 147.17 38.4138 145.933 37.8309C145.709 37.7256 140.396 35.2751 134.569 37.3196C133.279 37.7725 132.6 39.1852 133.053 40.4755C133.506 41.7658 134.919 42.4441 136.209 41.9919C140.049 40.6448 143.744 42.2748 143.834 42.315C144.171 42.4721 144.526 42.5464 144.876 42.5464C145.805 42.5464 146.695 42.0213 147.117 41.1258Z" fill="#444444"/>
<path d="M96.0715 124.354C96.7118 123.146 96.2524 121.648 95.0443 121.007C88.0473 117.296 80.9519 117.296 73.9553 121.007C72.7475 121.648 72.2877 123.146 72.9281 124.354C73.5691 125.562 75.067 126.022 76.275 125.381C81.8098 122.446 87.1904 122.446 92.7245 125.381C93.0938 125.577 93.4909 125.67 93.8821 125.67C94.7693 125.67 95.6269 125.192 96.0715 124.354Z" fill="#444444"/>
<path d="M137.654 131.209H132.691V126.246C132.691 124.098 130.943 122.35 128.795 122.35H120.719C118.571 122.35 116.823 124.098 116.823 126.246V131.209H111.86C109.712 131.209 107.964 132.957 107.964 135.105V143.181C107.964 145.329 109.712 147.077 111.86 147.077H116.823V152.04C116.823 154.188 118.571 155.936 120.719 155.936H128.795C130.943 155.936 132.691 154.188 132.691 152.04V147.077H137.654C139.802 147.077 141.55 145.329 141.55 143.181V135.105C141.55 132.957 139.802 131.209 137.654 131.209ZM136.599 142.126H131.636C129.487 142.126 127.74 143.873 127.74 146.022V150.985H121.774V146.022C121.774 143.873 120.027 142.126 117.878 142.126H112.916V136.16H117.878C120.027 136.16 121.774 134.412 121.774 132.264V127.301H127.74V132.264C127.74 134.412 129.487 136.16 131.636 136.16H136.599V142.126Z" fill="#E54D4A"/>
</svg>
